<svg width="250" height="171" viewBox="0 0 250 171" fill="none" xmlns="http://www.w3.org/2000/svg">
<g clip-path="url(#clip0_658_37447)">
<g style="mix-blend-mode:multiply">
<g style="mix-blend-mode:multiply" opacity="0.02">
<path d="M100.138 170.775C153.797 170.775 197.296 164.649 197.296 157.091C197.296 149.533 153.797 143.406 100.138 143.406C46.4794 143.406 2.98047 149.533 2.98047 157.091C2.98047 164.649 46.4794 170.775 100.138 170.775Z" fill="#FEFEFE"/>
</g>
<g style="mix-blend-mode:multiply" opacity="0.03">
<path d="M101.558 170.582C154.34 170.582 197.129 164.544 197.129 157.096C197.129 149.647 154.34 143.609 101.558 143.609C48.7765 143.609 5.98828 149.647 5.98828 157.096C5.98828 164.544 48.7765 170.582 101.558 170.582Z" fill="#FCFCFC"/>
</g>
<g style="mix-blend-mode:multiply" opacity="0.05">
<path d="M102.974 170.358C154.876 170.358 196.951 164.422 196.951 157.101C196.951 149.779 154.876 143.844 102.974 143.844C51.0713 143.844 8.99609 149.779 8.99609 157.101C8.99609 164.422 51.0713 170.358 102.974 170.358Z" fill="#FBFBFB"/>
</g>
<g style="mix-blend-mode:multiply" opacity="0.07">
<path d="M104.366 170.106C155.406 170.106 196.782 164.273 196.782 157.078C196.782 149.883 155.406 144.051 104.366 144.051C53.3255 144.051 11.9492 149.883 11.9492 157.078C11.9492 164.273 53.3255 170.106 104.366 170.106Z" fill="#F9F9F9"/>
</g>
<g style="mix-blend-mode:multiply" opacity="0.08">
<path d="M105.781 169.888C155.942 169.888 196.605 164.156 196.605 157.084C196.605 150.013 155.942 144.281 105.781 144.281C55.6203 144.281 14.957 150.013 14.957 157.084C14.957 164.156 55.6203 169.888 105.781 169.888Z" fill="#F8F8F8"/>
</g>
<g style="mix-blend-mode:multiply" opacity="0.1">
<path d="M107.201 169.659C156.485 169.659 196.438 164.03 196.438 157.085C196.438 150.141 156.485 144.512 107.201 144.512C57.9174 144.512 17.9648 150.141 17.9648 157.085C17.9648 164.03 57.9174 169.659 107.201 169.659Z" fill="#F6F7F7"/>
</g>
<g style="mix-blend-mode:multiply" opacity="0.11">
<path d="M108.588 169.466C157.007 169.466 196.259 163.925 196.259 157.09C196.259 150.256 157.007 144.715 108.588 144.715C60.1693 144.715 20.918 150.256 20.918 157.09C20.918 163.925 60.1693 169.466 108.588 169.466Z" fill="#F5F5F5"/>
</g>
<g style="mix-blend-mode:multiply" opacity="0.13">
<path d="M110.009 169.241C157.551 169.241 196.092 163.803 196.092 157.095C196.092 150.387 157.551 144.949 110.009 144.949C62.4664 144.949 23.9258 150.387 23.9258 157.095C23.9258 163.803 62.4664 169.241 110.009 169.241Z" fill="#F4F4F4"/>
</g>
<g style="mix-blend-mode:multiply" opacity="0.15">
<path d="M111.424 169.013C158.087 169.013 195.914 163.678 195.914 157.096C195.914 150.515 158.087 145.18 111.424 145.18C64.7612 145.18 26.9336 150.515 26.9336 157.096C26.9336 163.678 64.7612 169.013 111.424 169.013Z" fill="#F2F2F2"/>
</g>
<g style="mix-blend-mode:multiply" opacity="0.16">
<path d="M112.835 168.761C158.618 168.761 195.733 163.529 195.733 157.074C195.733 150.619 158.618 145.387 112.835 145.387C67.0521 145.387 29.9375 150.619 29.9375 157.074C29.9375 163.529 67.0521 168.761 112.835 168.761Z" fill="#F1F1F1"/>
</g>
<g style="mix-blend-mode:multiply" opacity="0.18">
<path d="M114.231 168.543C159.152 168.543 195.568 163.411 195.568 157.08C195.568 150.749 159.152 145.617 114.231 145.617C69.3102 145.617 32.8945 150.749 32.8945 157.08C32.8945 163.411 69.3102 168.543 114.231 168.543Z" fill="#EFEFEF"/>
</g>
<g style="mix-blend-mode:multiply" opacity="0.2">
<path d="M115.646 168.315C159.688 168.315 195.391 163.285 195.391 157.081C195.391 150.877 159.688 145.848 115.646 145.848C71.605 145.848 35.9023 150.877 35.9023 157.081C35.9023 163.285 71.605 168.315 115.646 168.315Z" fill="#EEEEEE"/>
</g>
<g style="mix-blend-mode:multiply" opacity="0.21">
<path d="M117.063 168.125C160.228 168.125 195.22 163.185 195.22 157.09C195.22 150.995 160.228 146.055 117.063 146.055C73.8982 146.055 38.9062 150.995 38.9062 157.09C38.9062 163.185 73.8982 168.125 117.063 168.125Z" fill="#ECEDED"/>
</g>
<g style="mix-blend-mode:multiply" opacity="0.23">
<path d="M118.455 167.897C160.74 167.897 195.019 163.059 195.019 157.091C195.019 151.123 160.74 146.285 118.455 146.285C76.1695 146.285 41.8906 151.123 41.8906 157.091C41.8906 163.059 76.1695 167.897 118.455 167.897Z" fill="#EBEBEB"/>
</g>
<g style="mix-blend-mode:multiply" opacity="0.25">
<path d="M119.874 167.668C161.297 167.668 194.877 162.933 194.877 157.092C194.877 151.251 161.297 146.516 119.874 146.516C78.4512 146.516 44.8711 151.251 44.8711 157.092C44.8711 162.933 78.4512 167.668 119.874 167.668Z" fill="#EAEAEA"/>
</g>
<g style="mix-blend-mode:multiply" opacity="0.26">
<path d="M121.286 167.44C161.829 167.44 194.696 162.807 194.696 157.093C194.696 151.379 161.829 146.746 121.286 146.746C80.742 146.746 47.875 151.379 47.875 157.093C47.875 162.807 80.742 167.44 121.286 167.44Z" fill="#E8E8E8"/>
</g>
<g style="mix-blend-mode:multiply" opacity="0.28">
<path d="M122.679 167.222C162.345 167.222 194.502 162.69 194.502 157.099C194.502 151.509 162.345 146.977 122.679 146.977C83.0118 146.977 50.8555 151.509 50.8555 157.099C50.8555 162.69 83.0118 167.222 122.679 167.222Z" fill="#E7E7E7"/>
</g>
<g style="mix-blend-mode:multiply" opacity="0.3">
<path d="M124.094 166.993C162.881 166.993 194.324 162.564 194.324 157.1C194.324 151.636 162.881 147.207 124.094 147.207C85.3065 147.207 53.8633 151.636 53.8633 157.1C53.8633 162.564 85.3065 166.993 124.094 166.993Z" fill="#E5E6E6"/>
</g>
<g style="mix-blend-mode:multiply" opacity="0.31">
<path d="M125.513 166.781C163.438 166.781 194.183 162.44 194.183 157.086C194.183 151.731 163.438 147.391 125.513 147.391C87.5882 147.391 56.8438 151.731 56.8438 157.086C56.8438 162.44 87.5882 166.781 125.513 166.781Z" fill="#E4E4E4"/>
</g>
<g style="mix-blend-mode:multiply" opacity="0.33">
<path d="M126.901 166.552C163.947 166.552 193.978 162.314 193.978 157.087C193.978 151.859 163.947 147.621 126.901 147.621C89.8556 147.621 59.8242 151.859 59.8242 157.087C59.8242 162.314 89.8556 166.552 126.901 166.552Z" fill="#E2E3E3"/>
</g>
<g style="mix-blend-mode:multiply" opacity="0.34">
<path d="M128.316 166.324C164.482 166.324 193.801 162.189 193.801 157.088C193.801 151.987 164.482 147.852 128.316 147.852C92.1503 147.852 62.832 151.987 62.832 157.088C62.832 162.189 92.1503 166.324 128.316 166.324Z" fill="#E1E1E1"/>
</g>
<g style="mix-blend-mode:multiply" opacity="0.36">
<path d="M129.737 166.095C165.026 166.095 193.634 162.063 193.634 157.089C193.634 152.114 165.026 148.082 129.737 148.082C94.4475 148.082 65.8398 152.114 65.8398 157.089C65.8398 162.063 94.4475 166.095 129.737 166.095Z" fill="#E0E0E0"/>
</g>
<g style="mix-blend-mode:multiply" opacity="0.38">
<path d="M131.129 165.877C165.556 165.877 193.465 161.945 193.465 157.095C193.465 152.244 165.556 148.312 131.129 148.312C96.7017 148.312 68.793 152.244 68.793 157.095C68.793 161.945 96.7017 165.877 131.129 165.877Z" fill="#DEDEDF"/>
</g>
<g style="mix-blend-mode:multiply" opacity="0.39">
<path d="M132.544 165.654C166.092 165.654 193.287 161.813 193.287 157.075C193.287 152.337 166.092 148.496 132.544 148.496C98.9965 148.496 71.8008 152.337 71.8008 157.075C71.8008 161.813 98.9965 165.654 132.544 165.654Z" fill="#DDDDDD"/>
</g>
<g style="mix-blend-mode:multiply" opacity="0.41">
<path d="M133.959 165.436C166.627 165.436 193.11 161.695 193.11 157.081C193.11 152.467 166.627 148.727 133.959 148.727C101.291 148.727 74.8086 152.467 74.8086 157.081C74.8086 161.695 101.291 165.436 133.959 165.436Z" fill="#DBDCDC"/>
</g>
<g style="mix-blend-mode:multiply" opacity="0.43">
<path d="M135.379 165.207C167.185 165.207 192.969 161.57 192.969 157.082C192.969 152.595 167.185 148.957 135.379 148.957C103.573 148.957 77.7891 152.595 77.7891 157.082C77.7891 161.57 103.573 165.207 135.379 165.207Z" fill="#DADADA"/>
</g>
<g style="mix-blend-mode:multiply" opacity="0.44">
<path d="M136.767 164.979C167.693 164.979 192.764 161.444 192.764 157.083C192.764 152.723 167.693 149.188 136.767 149.188C105.84 149.188 80.7695 152.723 80.7695 157.083C80.7695 161.444 105.84 164.979 136.767 164.979Z" fill="#D8D9D9"/>
</g>
<g style="mix-blend-mode:multiply" opacity="0.46">
<path d="M138.164 164.761C168.213 164.761 192.573 161.326 192.573 157.089C192.573 152.853 168.213 149.418 138.164 149.418C108.114 149.418 83.7539 152.853 83.7539 157.089C83.7539 161.326 108.114 164.761 138.164 164.761Z" fill="#D7D7D7"/>
</g>
<g style="mix-blend-mode:multiply" opacity="0.48">
<path d="M139.602 164.533C168.772 164.533 192.419 161.201 192.419 157.09C192.419 152.98 168.772 149.648 139.602 149.648C110.432 149.648 86.7852 152.98 86.7852 157.09C86.7852 161.201 110.432 164.533 139.602 164.533Z" fill="#D5D6D6"/>
</g>
<g style="mix-blend-mode:multiply" opacity="0.49">
<path d="M140.971 164.343C169.279 164.343 192.227 161.1 192.227 157.099C192.227 153.099 169.279 149.855 140.971 149.855C112.663 149.855 89.7148 153.099 89.7148 157.099C89.7148 161.1 112.663 164.343 140.971 164.343Z" fill="#D4D5D5"/>
</g>
<g style="mix-blend-mode:multiply" opacity="0.51">
<path d="M142.386 164.115C169.814 164.115 192.05 160.974 192.05 157.1C192.05 153.226 169.814 150.086 142.386 150.086C114.958 150.086 92.7227 153.226 92.7227 157.1C92.7227 160.974 114.958 164.115 142.386 164.115Z" fill="#D3D3D3"/>
</g>
<g style="mix-blend-mode:multiply" opacity="0.52">
<path d="M143.83 163.863C170.382 163.863 191.906 160.825 191.906 157.078C191.906 153.331 170.382 150.293 143.83 150.293C117.278 150.293 95.7539 153.331 95.7539 157.078C95.7539 160.825 117.278 163.863 143.83 163.863Z" fill="#D1D2D2"/>
</g>
<g style="mix-blend-mode:multiply" opacity="0.54">
<path d="M145.218 163.634C170.89 163.634 191.701 160.699 191.701 157.079C191.701 153.458 170.89 150.523 145.218 150.523C119.546 150.523 98.7344 153.458 98.7344 157.079C98.7344 160.699 119.546 163.634 145.218 163.634Z" fill="#D0D0D0"/>
</g>
<g style="mix-blend-mode:multiply" opacity="0.56">
<path d="M146.614 163.416C171.424 163.416 191.536 160.582 191.536 157.085C191.536 153.588 171.424 150.754 146.614 150.754C121.804 150.754 101.691 153.588 101.691 157.085C101.691 160.582 121.804 163.416 146.614 163.416Z" fill="#CECFCF"/>
</g>
<g style="mix-blend-mode:multiply" opacity="0.57">
<path d="M148.029 163.217C171.96 163.217 191.359 160.473 191.359 157.089C191.359 153.704 171.96 150.961 148.029 150.961C124.099 150.961 104.699 153.704 104.699 157.089C104.699 160.473 124.099 163.217 148.029 163.217Z" fill="#CDCDCE"/>
</g>
<g style="mix-blend-mode:multiply" opacity="0.59">
<path d="M149.417 162.999C172.468 162.999 191.154 160.355 191.154 157.095C191.154 153.835 172.468 151.191 149.417 151.191C126.366 151.191 107.68 153.835 107.68 157.095C107.68 160.355 126.366 162.999 149.417 162.999Z" fill="#CBCCCC"/>
</g>
<g style="mix-blend-mode:multiply" opacity="0.61">
<path d="M150.837 162.77C173.011 162.77 190.987 160.23 190.987 157.096C190.987 153.962 173.011 151.422 150.837 151.422C128.663 151.422 110.688 153.962 110.688 157.096C110.688 160.23 128.663 162.77 150.837 162.77Z" fill="#CACBCB"/>
</g>
<g style="mix-blend-mode:multiply" opacity="0.62">
<path d="M152.252 162.542C173.561 162.542 190.835 160.104 190.835 157.097C190.835 154.09 173.561 151.652 152.252 151.652C130.942 151.652 113.668 154.09 113.668 157.097C113.668 160.104 130.942 162.542 152.252 162.542Z" fill="#C9C9C9"/>
</g>
<g style="mix-blend-mode:multiply" opacity="0.64">
<path d="M153.645 162.29C174.077 162.29 190.641 159.955 190.641 157.075C190.641 154.194 174.077 151.859 153.645 151.859C133.212 151.859 116.648 154.194 116.648 157.075C116.648 159.955 133.212 162.29 153.645 162.29Z" fill="#C7C8C8"/>
</g>
<g style="mix-blend-mode:multiply" opacity="0.66">
<path d="M155.06 162.076C174.613 162.076 190.463 159.841 190.463 157.085C190.463 154.328 174.613 152.094 155.06 152.094C135.507 152.094 119.656 154.328 119.656 157.085C119.656 159.841 135.507 162.076 155.06 162.076Z" fill="#C6C6C7"/>
</g>
<g style="mix-blend-mode:multiply" opacity="0.67">
<path d="M156.475 161.872C175.148 161.872 190.286 159.728 190.286 157.084C190.286 154.44 175.148 152.297 156.475 152.297C137.802 152.297 122.664 154.44 122.664 157.084C122.664 159.728 137.802 161.872 156.475 161.872Z" fill="#C4C5C5"/>
</g>
<g style="mix-blend-mode:multiply" opacity="0.69">
<path d="M157.895 161.654C175.706 161.654 190.145 159.611 190.145 157.091C190.145 154.57 175.706 152.527 157.895 152.527C140.083 152.527 125.645 154.57 125.645 157.091C125.645 159.611 140.083 161.654 157.895 161.654Z" fill="#C3C4C4"/>
</g>
<g style="mix-blend-mode:multiply" opacity="0.7">
<path d="M159.288 161.425C176.222 161.425 189.95 159.485 189.95 157.092C189.95 154.698 176.222 152.758 159.288 152.758C142.353 152.758 128.625 154.698 128.625 157.092C128.625 159.485 142.353 161.425 159.288 161.425Z" fill="#C1C2C2"/>
</g>
<g style="mix-blend-mode:multiply" opacity="0.72">
<path d="M160.703 161.197C176.758 161.197 189.773 159.359 189.773 157.093C189.773 154.826 176.758 152.988 160.703 152.988C144.648 152.988 131.633 154.826 131.633 157.093C131.633 159.359 144.648 161.197 160.703 161.197Z" fill="#C0C1C1"/>
</g>
<g style="mix-blend-mode:multiply" opacity="0.74">
<path d="M162.122 160.968C177.315 160.968 189.631 159.234 189.631 157.094C189.631 154.954 177.315 153.219 162.122 153.219C146.93 153.219 134.613 154.954 134.613 157.094C134.613 159.234 146.93 160.968 162.122 160.968Z" fill="#BFBFBF"/>
</g>
<g style="mix-blend-mode:multiply" opacity="0.75">
<path d="M163.51 160.756C177.823 160.756 189.427 159.11 189.427 157.079C189.427 155.048 177.823 153.402 163.51 153.402C149.197 153.402 137.594 155.048 137.594 157.079C137.594 159.11 149.197 160.756 163.51 160.756Z" fill="#BDBEBE"/>
</g>
<g style="mix-blend-mode:multiply" opacity="0.77">
<path d="M164.925 160.527C178.359 160.527 189.249 158.984 189.249 157.08C189.249 155.176 178.359 153.633 164.925 153.633C151.492 153.633 140.602 155.176 140.602 157.08C140.602 158.984 151.492 160.527 164.925 160.527Z" fill="#BCBCBD"/>
</g>
<g style="mix-blend-mode:multiply" opacity="0.79">
<path d="M166.342 160.309C178.899 160.309 189.078 158.866 189.078 157.086C189.078 155.306 178.899 153.863 166.342 153.863C153.785 153.863 143.605 155.306 143.605 157.086C143.605 158.866 153.785 160.309 166.342 160.309Z" fill="#BABBBB"/>
</g>
<g style="mix-blend-mode:multiply" opacity="0.8">
<path d="M167.738 160.081C179.433 160.081 188.913 158.741 188.913 157.087C188.913 155.434 179.433 154.094 167.738 154.094C156.043 154.094 146.562 155.434 146.562 157.087C146.562 158.741 156.043 160.081 167.738 160.081Z" fill="#B9BABA"/>
</g>
<g style="mix-blend-mode:multiply" opacity="0.82">
<path d="M169.153 159.852C179.968 159.852 188.736 158.615 188.736 157.088C188.736 155.562 179.968 154.324 169.153 154.324C158.338 154.324 149.57 155.562 149.57 157.088C149.57 158.615 158.338 159.852 169.153 159.852Z" fill="#B7B8B8"/>
</g>
<g style="mix-blend-mode:multiply" opacity="0.84">
<path d="M170.564 159.634C180.5 159.634 188.555 158.497 188.555 157.094C188.555 155.692 180.5 154.555 170.564 154.555C160.629 154.555 152.574 155.692 152.574 157.094C152.574 158.497 160.629 159.634 170.564 159.634Z" fill="#B6B7B7"/>
</g>
<g style="mix-blend-mode:multiply" opacity="0.85">
<path d="M155.559 157.075C155.559 158.358 162.908 159.385 171.961 159.385C181.015 159.385 188.391 158.342 188.391 157.075C188.391 155.807 181.062 154.738 171.961 154.738C162.861 154.738 155.559 155.792 155.559 157.075Z" fill="#B5B5B6"/>
</g>
<g style="mix-blend-mode:multiply" opacity="0.87">
<path d="M158.539 157.082C158.539 158.224 165.19 159.168 173.355 159.168C181.519 159.168 188.17 158.229 188.17 157.082C188.17 155.935 181.519 154.996 173.355 154.996C165.19 154.996 158.539 155.909 158.539 157.082Z" fill="#B3B4B4"/>
</g>
<g style="mix-blend-mode:multiply" opacity="0.89">
<path d="M161.543 157.082C161.543 158.125 167.326 158.965 174.771 158.965C182.216 158.965 187.999 158.109 187.999 157.082C187.999 156.055 182.068 155.199 174.771 155.199C167.474 155.199 161.543 156.039 161.543 157.082Z" fill="#B2B3B3"/>
</g>
<g style="mix-blend-mode:multiply" opacity="0.9">
<path d="M164.523 157.091C164.523 158.003 169.756 158.744 176.095 158.744C182.434 158.744 187.667 158.003 187.667 157.091C187.667 156.178 182.434 155.406 176.095 155.406C169.756 155.406 164.523 156.147 164.523 157.091Z" fill="#B0B1B1"/>
</g>
<g style="mix-blend-mode:multiply" opacity="0.92">
<path d="M167.531 157.092C167.531 157.864 172.045 158.515 177.585 158.515C183.125 158.515 187.68 157.858 187.68 157.092C187.68 156.325 183.167 155.637 177.585 155.637C172.002 155.637 167.531 156.294 167.531 157.092Z" fill="#AFB0B0"/>
</g>
<g style="mix-blend-mode:multiply" opacity="0.93">
<path d="M170.664 157.093C170.664 157.75 174.484 158.292 179.167 158.292C183.85 158.292 187.633 157.771 187.633 157.093C187.633 156.415 183.845 155.867 179.167 155.867C174.49 155.867 170.664 156.41 170.664 157.093Z" fill="#ADAEAF"/>
</g>
<g style="mix-blend-mode:multiply" opacity="0.95">
<path d="M173.547 157.094C173.547 157.615 176.642 158.064 180.425 158.064C184.209 158.064 187.341 157.636 187.341 157.094C187.341 156.551 184.246 156.098 180.425 156.098C176.605 156.098 173.547 156.525 173.547 157.094Z" fill="#ACADAD"/>
</g>
<g style="mix-blend-mode:multiply" opacity="0.97">
<path d="M176.449 157.095C176.449 157.496 178.82 157.835 181.772 157.835C184.725 157.835 187.095 157.491 187.095 157.095C187.095 156.699 184.725 156.323 181.772 156.323C179.961 156.162 178.137 156.427 176.449 157.095Z" fill="#ABACAC"/>
</g>
<g style="mix-blend-mode:multiply" opacity="0.98">
<path d="M179.48 157.084C179.48 157.371 181.158 157.606 183.243 157.606C185.327 157.606 186.973 157.35 186.973 157.084C186.973 156.818 185.296 156.562 183.243 156.562C181.19 156.562 179.48 156.797 179.48 157.084Z" fill="#A9AAAA"/>
</g>
<g style="mix-blend-mode:multiply">
<path d="M182.488 157.086C182.488 157.259 183.441 157.399 184.658 157.399C185.875 157.399 186.774 157.259 186.774 157.086C186.774 156.914 185.822 156.742 184.658 156.742C183.494 156.742 182.488 156.8 182.488 157.086Z" fill="#969696"/>
</g>
</g>
<path d="M127.215 161.359L55.0742 88.1748L114.807 4.44531L186.942 77.6662L127.215 161.359Z" fill="#727272"/>
<path d="M186.938 77.659L114.797 4.44853L177.852 0L249.993 73.2105L186.938 77.659Z" fill="#AFAFAF"/>
<path d="M250.007 73.2188L190.29 156.922L127.234 161.371L186.967 77.6673L250.007 73.2188Z" fill="#F5E425"/>
</g>
<defs>
<clipPath id="clip0_658_37447">
<rect width="250" height="171" fill="white"/>
</clipPath>
</defs>
</svg>
