<svg xmlns="http://www.w3.org/2000/svg" width="148.625" height="30.651"><defs><style>.bl{fill:#727272}</style></defs><g transform="translate(0 25.661)" style="mix-blend-mode:multiply;isolation:isolate"><ellipse cx="17.166" cy="2.455" rx="17.166" ry="2.455" transform="translate(.529 .04)" fill="#fefefe" opacity=".016"/><ellipse cx="16.886" cy="2.415" rx="16.886" ry="2.415" transform="translate(1.057 .08)" fill="#fcfcfc" opacity=".033"/><ellipse cx="16.606" cy="2.375" rx="16.606" ry="2.375" transform="translate(1.586 .12)" fill="#fbfbfb" opacity=".049"/><ellipse cx="16.326" cy="2.335" rx="16.326" ry="2.335" transform="translate(2.114 .16)" fill="#f9f9f9" opacity=".066"/><ellipse cx="16.047" cy="2.295" rx="16.047" ry="2.295" transform="translate(2.643 .2)" fill="#f8f8f8" opacity=".082"/><ellipse cx="15.767" cy="2.255" rx="15.767" ry="2.255" transform="translate(3.171 .24)" fill="#f6f7f7" opacity=".098"/><ellipse cx="15.487" cy="2.215" rx="15.487" ry="2.215" transform="translate(3.7 .28)" fill="#f5f5f5" opacity=".115"/><ellipse cx="15.208" cy="2.175" rx="15.208" ry="2.175" transform="translate(4.228 .32)" fill="#f4f4f4" opacity=".131"/><ellipse cx="14.928" cy="2.135" rx="14.928" ry="2.135" transform="translate(4.757 .36)" fill="#f2f2f2" opacity=".148"/><ellipse cx="14.648" cy="2.096" rx="14.648" ry="2.096" transform="translate(5.285 .4)" fill="#f1f1f1" opacity=".164"/><ellipse cx="14.368" cy="2.056" rx="14.368" ry="2.056" transform="translate(5.814 .44)" fill="#efefef" opacity=".18"/><ellipse cx="14.089" cy="2.016" rx="14.089" ry="2.016" transform="translate(6.342 .48)" fill="#eee" opacity=".197"/><ellipse cx="13.809" cy="1.976" rx="13.809" ry="1.976" transform="translate(6.871 .52)" fill="#eceded" opacity=".213"/><ellipse cx="13.529" cy="1.936" rx="13.529" ry="1.936" transform="translate(7.399 .56)" fill="#ebebeb" opacity=".23"/><ellipse cx="13.249" cy="1.896" rx="13.249" ry="1.896" transform="translate(7.928 .599)" fill="#eaeaea" opacity=".246"/><ellipse cx="12.97" cy="1.856" rx="12.97" ry="1.856" transform="translate(8.457 .639)" fill="#e8e8e8" opacity=".262"/><ellipse cx="12.69" cy="1.816" rx="12.69" ry="1.816" transform="translate(8.985 .679)" fill="#e7e7e7" opacity=".279"/><ellipse cx="12.41" cy="1.776" rx="12.41" ry="1.776" transform="translate(9.514 .719)" fill="#e5e6e6" opacity=".295"/><ellipse cx="12.13" cy="1.736" rx="12.13" ry="1.736" transform="translate(10.042 .759)" fill="#e4e4e4" opacity=".311"/><ellipse cx="11.851" cy="1.696" rx="11.851" ry="1.696" transform="translate(10.571 .799)" fill="#e2e3e3" opacity=".328"/><ellipse cx="11.571" cy="1.656" rx="11.571" ry="1.656" transform="translate(11.099 .839)" fill="#e1e1e1" opacity=".344"/><ellipse cx="11.291" cy="1.616" rx="11.291" ry="1.616" transform="translate(11.628 .879)" fill="#e0e0e0" opacity=".361"/><ellipse cx="11.012" cy="1.576" rx="11.012" ry="1.576" transform="translate(12.156 .919)" fill="#dededf" opacity=".377"/><ellipse cx="10.732" cy="1.536" rx="10.732" ry="1.536" transform="translate(12.685 .959)" fill="#ddd" opacity=".393"/><ellipse cx="10.452" cy="1.496" rx="10.452" ry="1.496" transform="translate(13.213 .999)" fill="#dbdcdc" opacity=".41"/><ellipse cx="10.172" cy="1.456" rx="10.172" ry="1.456" transform="translate(13.742 1.039)" fill="#dadada" opacity=".426"/><ellipse cx="9.893" cy="1.416" rx="9.893" ry="1.416" transform="translate(14.27 1.079)" fill="#d8d9d9" opacity=".443"/><ellipse cx="9.613" cy="1.376" rx="9.613" ry="1.376" transform="translate(14.799 1.119)" fill="#d7d7d7" opacity=".459"/><ellipse cx="9.333" cy="1.336" rx="9.333" ry="1.336" transform="translate(15.328 1.159)" fill="#d5d6d6" opacity=".475"/><ellipse cx="9.053" cy="1.296" rx="9.053" ry="1.296" transform="translate(15.856 1.199)" fill="#d4d5d5" opacity=".492"/><ellipse cx="8.774" cy="1.256" rx="8.774" ry="1.256" transform="translate(16.385 1.239)" fill="#d3d3d3" opacity=".508"/><ellipse cx="8.494" cy="1.216" rx="8.494" ry="1.216" transform="translate(16.913 1.279)" fill="#d1d2d2" opacity=".525"/><ellipse cx="8.214" cy="1.176" rx="8.214" ry="1.176" transform="translate(17.442 1.319)" fill="#d0d0d0" opacity=".541"/><ellipse cx="7.935" cy="1.136" rx="7.935" ry="1.136" transform="translate(17.97 1.359)" fill="#cecfcf" opacity=".557"/><ellipse cx="7.655" cy="1.096" rx="7.655" ry="1.096" transform="translate(18.499 1.399)" fill="#cdcdce" opacity=".574"/><ellipse cx="7.375" cy="1.056" rx="7.375" ry="1.056" transform="translate(19.027 1.439)" fill="#cbcccc" opacity=".59"/><ellipse cx="7.095" cy="1.016" rx="7.095" ry="1.016" transform="translate(19.556 1.479)" fill="#cacbcb" opacity=".607"/><ellipse cx="6.816" cy=".977" rx="6.816" ry=".977" transform="translate(20.084 1.519)" fill="#c9c9c9" opacity=".623"/><ellipse cx="6.536" cy=".937" rx="6.536" ry=".937" transform="translate(20.613 1.559)" fill="#c7c8c8" opacity=".639"/><ellipse cx="6.256" cy=".897" rx="6.256" ry=".897" transform="translate(21.141 1.599)" fill="#c6c6c7" opacity=".656"/><ellipse cx="5.976" cy=".857" rx="5.976" ry=".857" transform="translate(21.67 1.639)" fill="#c4c5c5" opacity=".672"/><ellipse cx="5.697" cy=".817" rx="5.697" ry=".817" transform="translate(22.198 1.679)" fill="#c3c4c4" opacity=".689"/><ellipse cx="5.417" cy=".777" rx="5.417" ry=".777" transform="translate(22.727 1.718)" fill="#c1c2c2" opacity=".705"/><ellipse cx="5.137" cy=".737" rx="5.137" ry=".737" transform="translate(23.256 1.758)" fill="#c0c1c1" opacity=".721"/><ellipse cx="4.858" cy=".697" rx="4.858" ry=".697" transform="translate(23.784 1.798)" fill="#bfbfbf" opacity=".738"/><ellipse cx="4.578" cy=".657" rx="4.578" ry=".657" transform="translate(24.313 1.838)" fill="#bdbebe" opacity=".754"/><ellipse cx="4.298" cy=".617" rx="4.298" ry=".617" transform="translate(24.841 1.878)" fill="#bcbcbd" opacity=".77"/><ellipse cx="4.018" cy=".577" rx="4.018" ry=".577" transform="translate(25.37 1.918)" fill="#babbbb" opacity=".787"/><ellipse cx="3.739" cy=".537" rx="3.739" ry=".537" transform="translate(25.898 1.958)" fill="#b9baba" opacity=".803"/><ellipse cx="3.459" cy=".497" rx="3.459" ry=".497" transform="translate(26.427 1.998)" fill="#b7b8b8" opacity=".82"/><ellipse cx="3.179" cy=".457" rx="3.179" ry=".457" transform="translate(26.955 2.038)" fill="#b6b7b7" opacity=".836"/><path d="M27.484 2.495c0 .23 1.3.417 2.9.417s2.9-.187 2.9-.417-1.3-.417-2.9-.417-2.9.187-2.9.417z" fill="#b5b5b6" opacity=".852"/><path d="M28.012 2.495c0 .208 1.173.377 2.62.377s2.619-.169 2.619-.377-1.173-.377-2.619-.377-2.62.169-2.62.377z" fill="#b3b4b4" opacity=".869"/><path d="M28.541 2.497c0 .186 1.048.337 2.34.337s2.34-.151 2.34-.337-1.047-.337-2.34-.337-2.34.149-2.34.337z" fill="#b2b3b3" opacity=".885"/><path d="M29.069 2.495c0 .164.922.3 2.06.3s2.06-.133 2.06-.3-.922-.3-2.06-.3-2.06.136-2.06.3z" fill="#b0b1b1" opacity=".902"/><path d="M29.598 2.495c0 .142.8.257 1.78.257s1.781-.115 1.781-.257-.8-.257-1.781-.257-1.78.115-1.78.257z" fill="#afb0b0" opacity=".918"/><path d="M30.126 2.495c0 .12.672.217 1.5.217s1.5-.1 1.5-.217-.672-.217-1.5-.217-1.5.098-1.5.217z" fill="#adaeaf" opacity=".934"/><path d="M30.655 2.495c0 .1.547.177 1.221.177s1.221-.079 1.221-.177-.547-.177-1.221-.177-1.221.079-1.221.177z" fill="#acadad" opacity=".951"/><path d="M31.185 2.496c0 .076.421.137.941.137s.941-.062.941-.137-.422-.137-.941-.137-.941.061-.941.137z" fill="#abacac" opacity=".967"/><path d="M31.712 2.495c0 .054.3.1.662.1s.662-.043.662-.1-.3-.1-.662-.1-.662.046-.662.1z" fill="#a9aaaa" opacity=".984"/><path d="M32.24 2.495c0 .032.171.057.382.057s.382-.025.382-.057-.171-.057-.382-.057-.382.025-.382.057z" fill="#969696"/></g><path class="bl" d="M22.475 28.925L9.729 15.804 20.281.798l12.748 13.12z"/><path d="M33.028 13.923L20.284.798l11.143-.8 12.744 13.125z" fill="#afafaf"/><path d="M44.171 13.121L33.618 28.126l-11.143.8L33.027 13.92z" fill="#f5e425"/><path class="bl" d="M119.185 25.455h.034a1.654 1.654 0 011.256.586 1.63 1.63 0 01.4 1.022v.1a1.618 1.618 0 01-.619 1.256 1.643 1.643 0 01-1.072.385 1.685 1.685 0 01-1.156-.468 1.648 1.648 0 01-.5-1.139v-.134a1.686 1.686 0 011.658-1.608zm13.682-12.728a6.165 6.165 0 015.259 2.714l.05.1h.016v-2.612l.034-.05h2.261l.05.05v15.826l-.05.05h-2.261l-.034-.05v-2.58h-.016a6.074 6.074 0 01-5.46 2.78v-.017l-.033.017a7.572 7.572 0 01-5.694-2.612 8.216 8.216 0 01-2.043-5.392v-.2a8.123 8.123 0 012.261-5.627 7.7 7.7 0 015.66-2.397zm-5.572 8.056v.084a5.755 5.755 0 002.244 4.639 5.233 5.233 0 008.156-2.479 6.168 6.168 0 00.368-2.076v-.368a6.1 6.1 0 00-.921-3.048 4.8 4.8 0 00-4.2-2.428 5.373 5.373 0 00-5.159 3.349 6.125 6.125 0 00-.488 2.327zm19.59-16.496h.133a1.655 1.655 0 011.607 1.624v.084a1.671 1.671 0 01-1.624 1.642h-.1a1.6 1.6 0 01-1.272-.653 1.577 1.577 0 01-.352-.955v-.131a1.632 1.632 0 01.536-1.172 1.656 1.656 0 011.072-.439zm-1.089 8.608h2.311l.016.017v15.875l-.016.017h-2.311l-.017-.017V12.912zm-77.304 3.35a7.708 7.708 0 00-6.584-3.517 6.326 6.326 0 00-3.283.875c-.051.027-.1.059-.152.088l-.024.014a9.365 9.365 0 00-1.666 1.216c-.065.068-.121.138-.184.207V4.337l-.05-.05h-2.241l-.05.05v7.766c0 2.15.063 6.507.035 8.646a5.774 5.774 0 00.067.943 8.27 8.27 0 002.443 5.119 7.578 7.578 0 005.242 2.144 7.234 7.234 0 002.234-.355 6.656 6.656 0 001.093-.4 8.543 8.543 0 002.2-1.594 8.152 8.152 0 002.277-5.577v-.368a8.218 8.218 0 00-1.357-4.416zM66.365 24.3a5.467 5.467 0 01-3.614 2.26 5.292 5.292 0 01-.573.035 6.124 6.124 0 01-1.619-.212 5.642 5.642 0 01-2.116-1.262 7.077 7.077 0 01-.676-.811c-.047-.069-.1-.136-.145-.207l-.021-.035a6.027 6.027 0 01-.866-3.218v-.184a6.277 6.277 0 01.486-2.277 7.45 7.45 0 01.84-1.4c.021-.026.04-.052.062-.078s.065-.07.1-.108a5.176 5.176 0 013.674-1.685h.251a4.928 4.928 0 01.652.05c.043.006.087.011.13.019.086.014.169.033.253.05a5.347 5.347 0 012.347 1.238 5.872 5.872 0 011.91 4.371 6.211 6.211 0 01-1.075 3.452zm7.653-20.013h2.311l.017.017v24.484l-.017.017h-2.311l-.016-.017V4.304zm13.884 8.491h.436a7.392 7.392 0 014.89 1.993 8.356 8.356 0 01-.134 12.293 7.482 7.482 0 01-10.215-.251 8.2 8.2 0 01-2.479-5.862v-.2a8.15 8.15 0 012.462-5.828 7.4 7.4 0 015.04-2.145zm-5.158 8.072v.084a5.838 5.838 0 001.775 4.187 5.206 5.206 0 003.6 1.49 5.322 5.322 0 004.32-2.311 6.211 6.211 0 001.072-3.45 5.872 5.872 0 00-1.91-4.371 5.051 5.051 0 00-3.383-1.357h-.251a5.2 5.2 0 00-3.718 1.725 5.981 5.981 0 00-1.504 4.003zm15.792-7.955h3.048l4.589 5.962q.217-.318 4-5.225a6.676 6.676 0 01.586-.737h3.031v.05l-5.945 7.6v.016q.318.352 6.414 8.223l-.016.017h-3.032l-5.057-6.582-5.057 6.582h-3l-.05-.05 6.414-8.206v-.031l-5.928-7.6z"/></svg>