<svg xmlns="http://www.w3.org/2000/svg" viewBox="0 0 200 177.37"><defs><style>.cls-1{fill:#245fff;}</style></defs><g id="Layer_2" data-name="Layer 2"><g id="Layer_1-2" data-name="Layer 1"><path class="cls-1" d="M149.92,177.37A18.38,18.38,0,1,1,168.3,159,18.39,18.39,0,0,1,149.92,177.37Zm0-31.76A13.39,13.39,0,1,0,163.31,159,13.24,13.24,0,0,0,149.92,145.61Zm-68,31.76A18.38,18.38,0,1,1,100.25,159,18.39,18.39,0,0,1,81.88,177.37Zm0-31.76A13.39,13.39,0,1,0,95.26,159,13.24,13.24,0,0,0,81.88,145.61ZM59,122.94a2.57,2.57,0,0,1-1.81-.9,2.45,2.45,0,0,1-.7-1.84l0-.3L32.22,5H2.5a2.5,2.5,0,1,1,0-5H34.25a2.66,2.66,0,0,1,2.47,2L41.1,22.68H197.55a2.72,2.72,0,0,1,2.41,3l-15.88,68a2.65,2.65,0,0,1-2.43,2H56.54l4.69,22.22H172.61a2.5,2.5,0,1,1,0,5H59Zm-3.5-32.22H179.68l14.78-63H42.15Z"/></g></g></svg>