<svg xmlns="http://www.w3.org/2000/svg" viewBox="0 0 80.68 91.35"><defs><style>.cls-1{fill:#245fff;}</style></defs><g id="Layer_2" data-name="Layer 2"><g id="Layer_1-2" data-name="Layer 1"><path class="cls-1" d="M57,91.35c-7.91,0-9.21-10.6-10.35-19.95-1-8.11-1.93-15.76-6.37-15.76-4.16,0-5.34,7.74-6.48,15.23-1.46,9.56-3.12,20.38-11.36,20.38C15.77,91.25,0,54.14,0,28.54,0,20,1.68,13.23,5,8.44,8.84,2.84,14.86,0,22.88,0A22.84,22.84,0,0,1,35.56,3.82,8.8,8.8,0,0,0,40.44,5.3a8.81,8.81,0,0,0,4.89-1.48A22.94,22.94,0,0,1,58,0C65.3,0,71,2.4,74.8,7.11s5.88,11.77,5.88,20.81c0,11.73-3.36,26.84-9.2,41.45C66.14,82.73,60.47,91.36,57,91.35ZM40.31,53.6c5.8,0,7.14,7.27,8.4,17.55C50,81.74,51.35,89.25,57,89.31h.15l.14,0c5.92-1.68,24.2-42.16,21-67.68C76.65,8.63,69.84,2.05,58,2.05A20.86,20.86,0,0,0,46.46,5.52l-.17.12c-4.57,2.73-10.1,5.7-17,5.7A28.25,28.25,0,0,1,18.09,8.9a1,1,0,0,1,.4-2,1.1,1.1,0,0,1,.4.08A26,26,0,0,0,29.15,9.29a23,23,0,0,0,6.73-1l2.6-.78L36,6.37a10.86,10.86,0,0,1-1.57-.85A20.78,20.78,0,0,0,22.88,2C11.23,2,4.61,8.11,2.62,20.62c-3.93,24.75,13.6,66.29,19.59,68.52l.18.07h.19c5.94-.11,7.58-7.79,9.23-18.64C33.38,60.32,34.81,53.59,40.31,53.6Z"/></g></g></svg>