<svg xmlns="http://www.w3.org/2000/svg" viewBox="0 0 200 193.3"><defs><style>.cls-1{fill:#245fff;}</style></defs><g id="Layer_2" data-name="Layer 2"><g id="Layer_1-2" data-name="Layer 1"><path class="cls-1" d="M0,193.3V51.85H50.18v-2a49.82,49.82,0,0,1,99.64,0v2H200V193.3Zm5.48-5.48h189V74.65L100,145.24,5.48,74.65Zm0-120L100,138.38,194.52,67.8V57.33H149.17l-.28,1.7a49.6,49.6,0,0,1-40.66,40.65,50.24,50.24,0,0,1-8.29.7h0A49.41,49.41,0,0,1,51.11,59l-.28-1.7H5.48ZM99.76,6a44.15,44.15,0,0,0-44.1,44.1v.23A44.34,44.34,0,1,0,100,6ZM73.5,48.18l4-3.85L93,60.32l27.24-25.57,3.86,4L92.89,68Z"/></g></g></svg>