<svg xmlns="http://www.w3.org/2000/svg" viewBox="0 0 159.42 200"><defs><style>.cls-1{fill:#245fff;}</style></defs><g id="Layer_2" data-name="Layer 2"><g id="Layer_1-2" data-name="Layer 1"><path class="cls-1" d="M79.71,200a196.67,196.67,0,0,1-51.25-6.8.85.85,0,0,1-.17-.06,1.85,1.85,0,0,1-1.05-1,1.91,1.91,0,0,1,0-1.43l2.66-7.06-1.94-.22c-9.33-1.08-18.2-2.34-26.37-3.76a2,2,0,0,1-.56-.2,1.82,1.82,0,0,1-.9-1.1A1.89,1.89,0,0,1,.22,177L50.77,82.63V69.82L44.39,47.41l-26-6.51a2.46,2.46,0,0,1-.38-.14,1.86,1.86,0,0,1-.83-2.5L30.68,11.18a1.86,1.86,0,0,1,.93-.88L55.3.15A1.86,1.86,0,0,1,57.7,1l4.17,8.38a19.5,19.5,0,0,0,17.57,10.9h.47A19.53,19.53,0,0,0,97.55,9.4L101.73,1a1.84,1.84,0,0,1,1.66-1,1.88,1.88,0,0,1,.74.15l23.69,10.16a1.87,1.87,0,0,1,.93.87l13.54,27.08a2.24,2.24,0,0,1,.14.39,1.86,1.86,0,0,1-1.36,2.25l-26,6.51-6.39,22.41V82.63L159.2,177a2.18,2.18,0,0,1,.19.56,1.87,1.87,0,0,1-1.52,2.15c-8.19,1.43-17.06,2.69-26.36,3.77l-1.94.22,2.65,7.06a1.27,1.27,0,0,1,.06.18,1.83,1.83,0,0,1-.19,1.41,1.86,1.86,0,0,1-1.13.87A196.73,196.73,0,0,1,79.71,200ZM31.4,190.13l1.66.41a192.54,192.54,0,0,0,46.65,5.74,192.46,192.46,0,0,0,46.64-5.74l1.66-.41L88.57,85H70.84Zm96.83-10,1.18-.13c8-.9,15.79-2,23.18-3.17l2.1-.34L105.67,85H92.55ZM4.72,176.47l2.11.34C14.23,178,22,179.08,30,180l1.18.13L66.87,85H53.75ZM54.49,81.23h50.43V71.42H54.49Zm-6.7-35.4L54,67.69h51.35l6.27-21.86-2.9-11.58,3.62-.9,2.56,10.26,23-5.76-12.2-24.39L104.29,4.27l-3.4,6.8A23.18,23.18,0,0,1,80,24h-.49a23.19,23.19,0,0,1-21-12.95L55.14,4.27,33.68,13.46,21.49,37.85l23,5.76,2.56-10.26,3.61.9Z"/></g></g></svg>