<?xml version="1.0" encoding="UTF-8"?>
<svg width="44px" height="26px" viewBox="0 0 44 26" version="1.1" xmlns="http://www.w3.org/2000/svg" xmlns:xlink="http://www.w3.org/1999/xlink">
    <title>4944901_sofa_interiors_furniture_home_icon</title>
    <g id="Page-1" stroke="none" stroke-width="1" fill="none" fill-rule="evenodd">
        <g id="4944901_sofa_interiors_furniture_home_icon" transform="translate(-0.001000, 0.533000)" fill="#2962FF" fill-rule="nonzero">
            <path d="M39.462,4.106 C39.239,4.106 39.024,4.141 38.81,4.172 L38.81,3.5 C38.81,1.57 37.241,0 35.31,0 L8.692,0 C6.762,0 5.192,1.57 5.192,3.5 L5.192,4.152 C4.977,4.121 4.758,4.104 4.538,4.104 C3.866,4.104 3.214,4.25 2.602,4.539 C1.022,5.285 0,6.896 0,8.643 L0,17.167 C0,19.333 1.764,21.097 3.93,21.097 L6.922,21.097 L5.358,24.21 C5.233,24.456 5.333,24.757 5.579,24.881 C5.651,24.917 5.727,24.934 5.804,24.934 C5.988,24.934 6.163,24.833 6.251,24.66 L8.042,21.097 L35.96,21.097 L37.753,24.66 C37.841,24.834 38.017,24.934 38.198,24.934 C38.274,24.934 38.35,24.917 38.423,24.881 C38.671,24.757 38.769,24.456 38.646,24.21 L37.081,21.097 L40.073,21.097 C42.241,21.097 44.003,19.333 44.003,17.167 L44.003,8.644 C44.001,6.142 41.966,4.106 39.462,4.106 Z M6.192,3.5 C6.192,2.122 7.313,1 8.692,1 L35.31,1 C36.689,1 37.81,2.122 37.81,3.5 L37.81,4.428 C36.123,5.092 34.922,6.726 34.922,8.644 C34.922,10.391 35.943,12.002 37.525,12.749 C37.611,12.79 37.668,12.877 37.668,12.972 L37.668,13.55 L6.337,13.55 L6.337,12.972 C6.337,12.876 6.39,12.79 6.478,12.749 C8.742,11.68 9.714,8.97 8.646,6.706 C8.146,5.646 7.251,4.848 6.193,4.431 L6.192,3.5 L6.192,3.5 Z M43.001,17.167 C43.001,18.782 41.687,20.097 40.071,20.097 L3.931,20.097 C2.316,20.097 1.001,18.782 1.001,17.167 L1.001,8.644 C1.001,7.281 1.798,6.025 3.03,5.444 C3.507,5.219 4.014,5.105 4.538,5.105 C5.901,5.105 7.159,5.901 7.741,7.134 C8.573,8.899 7.815,11.012 6.052,11.844 C5.616,12.049 5.337,12.491 5.337,12.971 L5.337,14.049 C5.337,14.325 5.56,14.549 5.837,14.549 L38.167,14.549 C38.442,14.549 38.667,14.325 38.667,14.049 L38.667,12.971 C38.667,12.492 38.386,12.049 37.952,11.844 C36.72,11.262 35.923,10.006 35.923,8.643 C35.923,6.692 37.511,5.104 39.462,5.104 C41.413,5.104 43.001,6.691 43.001,8.643 L43.001,17.167 L43.001,17.167 Z" id="Shape"></path>
            <path d="M22.001,5.482 C22.868,5.482 23.575,4.776 23.575,3.909 C23.575,3.042 22.868,2.334 22.001,2.334 C21.134,2.334 20.427,3.04 20.427,3.908 C20.427,4.776 21.134,5.482 22.001,5.482 Z M22.001,3.334 C22.317,3.334 22.575,3.592 22.575,3.908 C22.575,4.224 22.317,4.482 22.001,4.482 C21.685,4.482 21.427,4.225 21.427,3.909 C21.427,3.593 21.685,3.334 22.001,3.334 Z" id="Shape"></path>
            <path d="M22.001,9.616 C22.868,9.616 23.575,8.91 23.575,8.042 C23.575,7.175 22.868,6.469 22.001,6.469 C21.134,6.469 20.427,7.175 20.427,8.042 C20.427,8.91 21.134,9.616 22.001,9.616 Z M22.001,7.469 C22.317,7.469 22.575,7.726 22.575,8.042 C22.575,8.359 22.317,8.616 22.001,8.616 C21.685,8.616 21.427,8.359 21.427,8.042 C21.427,7.726 21.685,7.469 22.001,7.469 Z" id="Shape"></path>
            <path d="M29.714,5.482 C30.583,5.482 31.288,4.776 31.288,3.909 C31.288,3.042 30.583,2.335 29.714,2.335 C28.847,2.335 28.142,3.041 28.142,3.909 C28.142,4.777 28.847,5.482 29.714,5.482 Z M29.714,3.334 C30.03,3.334 30.288,3.592 30.288,3.908 C30.288,4.224 30.03,4.481 29.714,4.481 C29.398,4.481 29.142,4.224 29.142,3.908 C29.142,3.593 29.397,3.334 29.714,3.334 Z" id="Shape"></path>
            <path d="M29.714,9.616 C30.583,9.616 31.288,8.91 31.288,8.042 C31.288,7.175 30.583,6.469 29.714,6.469 C28.847,6.469 28.142,7.175 28.142,8.042 C28.142,8.91 28.847,9.616 29.714,9.616 Z M29.714,7.469 C30.03,7.469 30.288,7.726 30.288,8.042 C30.288,8.359 30.03,8.616 29.714,8.616 C29.398,8.616 29.142,8.359 29.142,8.042 C29.142,7.726 29.397,7.469 29.714,7.469 Z" id="Shape"></path>
            <path d="M14.288,5.482 C15.155,5.482 15.862,4.776 15.862,3.909 C15.862,3.042 15.155,2.335 14.288,2.335 C13.421,2.335 12.714,3.041 12.714,3.909 C12.714,4.777 13.421,5.482 14.288,5.482 Z M14.288,3.334 C14.604,3.334 14.862,3.592 14.862,3.908 C14.862,4.224 14.604,4.481 14.288,4.481 C13.972,4.481 13.714,4.224 13.714,3.908 C13.714,3.593 13.972,3.334 14.288,3.334 Z" id="Shape"></path>
            <path d="M14.288,9.616 C15.155,9.616 15.862,8.91 15.862,8.042 C15.862,7.175 15.155,6.469 14.288,6.469 C13.421,6.469 12.714,7.175 12.714,8.042 C12.714,8.91 13.421,9.616 14.288,9.616 Z M14.288,7.469 C14.604,7.469 14.862,7.726 14.862,8.042 C14.862,8.359 14.604,8.616 14.288,8.616 C13.972,8.616 13.714,8.359 13.714,8.042 C13.714,7.726 13.972,7.469 14.288,7.469 Z" id="Shape"></path>
        </g>
    </g>
</svg>