<svg xmlns="http://www.w3.org/2000/svg" viewBox="0 0 200 195.45"><defs><style>.cls-1{fill:#245fff;}</style></defs><g id="Layer_2" data-name="Layer 2"><g id="Layer_1-2" data-name="Layer 1"><path class="cls-1" d="M29.73,195.45A29.77,29.77,0,0,1,0,165.73V70.52A29.76,29.76,0,0,1,29.73,40.81H69.55L54.6,3.43a2.48,2.48,0,0,1,.2-2.36A2.5,2.5,0,0,1,56.93,0h27.2a2.46,2.46,0,0,1,2.32,1.57l14.68,36.68L115.81,1.57A2.49,2.49,0,0,1,118.14,0h27.2a2.49,2.49,0,0,1,2.13,1.07,2.48,2.48,0,0,1,.2,2.36L132.73,40.81h37.55A29.75,29.75,0,0,1,200,70.52v95.21a29.76,29.76,0,0,1-29.72,29.72Zm0-149.64A24.73,24.73,0,0,0,5,70.51v95.22a24.72,24.72,0,0,0,24.7,24.69H170.28A24.72,24.72,0,0,0,195,165.73v-4.29h0V70.51a24.73,24.73,0,0,0-24.69-24.7H104.17L113,68h11.9a2.45,2.45,0,0,1,2.51,2.5A2.48,2.48,0,0,1,124.94,73H70.53a2.51,2.51,0,0,1,0-5h9.9l-8.88-22.2ZM63,10.9c.91,2.29,21.76,54.41,21.76,54.41L85.83,68h21.78l-2.34-5.89L83.52,7.71,82.43,5H60.64Zm55.78-3.19-13.24,33.1h21.8L141.64,5H119.85ZM70.53,168.24a2.45,2.45,0,0,1-2.5-2.51v-6.79a32.09,32.09,0,0,1,16.18-27.78l4.29-2.45-3-3.91a18.18,18.18,0,0,1-3.84-11.21,18.39,18.39,0,1,1,32.93,11.23l-3,3.89,4.28,2.45A32.09,32.09,0,0,1,132,158.94v6.79a2.49,2.49,0,0,1-2.52,2.51ZM100,132a27,27,0,0,0-27,27v4.29H127v-4.29A27,27,0,0,0,100,132Zm0-31.73a13.36,13.36,0,1,0,13.36,13.35A13.37,13.37,0,0,0,100,100.24Z"/></g></g></svg>