<svg xmlns="http://www.w3.org/2000/svg" viewBox="0 0 84.05 72.04"><title>Image link</title><g id="Layer_2" data-name="Layer 2"><g id="Layer_1-2" data-name="Layer 1"><path d="M42.14,72c-10.5,0-21,0-31.48,0C3.34,72,.05,68.64,0,61.24Q0,36,0,10.78C.05,3.38,3.34.05,10.68,0q31.49-.08,63,0C80.66.06,84,3.45,84,10.55q.08,25.48,0,51C84,68.6,80.64,72,73.61,72,63.12,72.08,52.63,72,42.14,72ZM78,52.56C78,38.12,77.87,25,78.1,12c.08-4.65-1.63-6-6.13-6C54,6.14,36,6,18.06,6,4.51,6.08,6.09,4.47,6,18c0,9.71,0,19.42,0,30.44L27.21,24.6,45.29,43.51l11.76-13ZM27.36,33.45c-7,7.92-13.84,15.22-20.1,23-1.35,1.68-1.33,5.16-.69,7.46.32,1.13,3.5,2,5.4,2.05C26,66.1,40,66,54,66c1.06,0,2.12-.18,4-.34C47.5,54.69,37.68,44.32,27.36,33.45ZM49.5,47.93c4.52,4.83,9.16,9,12.78,13.86,3.41,4.61,7.73,4.55,12.37,4.14,3.31-.29,4.52-3.17,2.26-5.64-6.36-7-12.94-13.74-19.78-21Z"/><circle cx="62.02" cy="17.02" r="6"/></g></g></svg>