<svg xmlns="http://www.w3.org/2000/svg" viewBox="0 0 144.18 200"><defs><style>.cls-1{fill:#245fff;}</style></defs><g id="Layer_2" data-name="Layer 2"><g id="Layer_1-2" data-name="Layer 1"><path class="cls-1" d="M43.75,0A2.33,2.33,0,0,0,42,1.46l-8.72,21.8H2.33a3.23,3.23,0,0,0-.44,0A2.34,2.34,0,0,0,0,25.59V197.67A2.33,2.33,0,0,0,2.33,200H141.85a2.33,2.33,0,0,0,2.33-2.33V25.59a2.33,2.33,0,0,0-2.33-2.33H110.9l-8.72-21.8A2.34,2.34,0,0,0,100,0H43.75Zm2,4.65H98.4l7.48,18.6H38.3ZM4.65,27.92H139.53V195.35H4.65ZM18.17,39.54a2.34,2.34,0,0,0-1.89,2.33V181.4a2.32,2.32,0,0,0,2.32,2.32h107a2.32,2.32,0,0,0,2.32-2.32V41.87a2.32,2.32,0,0,0-2.32-2.33H18.17Zm2.76,4.65H123.25V179.07H20.93ZM34.45,69.77a2.33,2.33,0,0,0-1.89,2.33V88.38a2.32,2.32,0,0,0,2.32,2.32H51.16a2.33,2.33,0,0,0,2.33-2.32V72.1a2.34,2.34,0,0,0-2.33-2.33H34.45Zm32.84,0a2.34,2.34,0,0,0-2.18,2.33V88.38a2.32,2.32,0,0,0,2.33,2.32H109.3a2.32,2.32,0,0,0,2.32-2.32V72.1a2.34,2.34,0,0,0-1.89-2.33H67.29ZM37.21,74.43H48.84V86.05H37.21Zm32.55,0H107V86.05H69.76Zm-35.31,27.9a2.32,2.32,0,0,0-1.89,2.33v16.27a2.32,2.32,0,0,0,2.32,2.33H51.16a2.33,2.33,0,0,0,2.33-2.33V104.66a2.33,2.33,0,0,0-2.33-2.33H34.88A3.09,3.09,0,0,0,34.45,102.33Zm32.84,0a2.34,2.34,0,0,0-2.18,2.33v16.27a2.33,2.33,0,0,0,2.33,2.33H109.3a2.32,2.32,0,0,0,2.32-2.33V104.66a2.32,2.32,0,0,0-1.89-2.33,3.09,3.09,0,0,0-.43,0h-42ZM37.21,107H48.84v11.63H37.21Zm32.55,0H107v11.63H69.76ZM34.45,134.89a2.31,2.31,0,0,0-1.89,2.32v16.28a2.32,2.32,0,0,0,2.32,2.33H51.16a2.33,2.33,0,0,0,2.33-2.33V137.21a2.33,2.33,0,0,0-2.33-2.32H34.88A1.55,1.55,0,0,0,34.45,134.89Zm32.84,0a2.32,2.32,0,0,0-2.18,2.32v16.28a2.33,2.33,0,0,0,2.33,2.33H109.3a2.32,2.32,0,0,0,2.32-2.33V137.21a2.32,2.32,0,0,0-1.89-2.32,1.55,1.55,0,0,0-.43,0h-42Zm-30.08,4.65H48.84v11.63H37.21Zm32.55,0H107v11.63H69.76Z"/></g></g></svg>