<svg xmlns="http://www.w3.org/2000/svg" viewBox="0 0 159.65 200"><defs><style>.cls-1{fill:#245fff;fill-rule:evenodd;}</style></defs><g id="Layer_2" data-name="Layer 2"><g id="Layer_1-2" data-name="Layer 1"><path class="cls-1" d="M127.12,173.43a2.7,2.7,0,0,1-2.7,2.7H90.11a2.7,2.7,0,0,1,0-5.4h34.31a2.7,2.7,0,0,1,2.7,2.7Zm0-20.27a2.7,2.7,0,0,1-2.7,2.7H35.23a2.7,2.7,0,1,1,0-5.4h89.19a2.7,2.7,0,0,1,2.7,2.7Zm0-20.27a2.71,2.71,0,0,1-2.7,2.71H35.23a2.71,2.71,0,0,1,0-5.41h89.19a2.7,2.7,0,0,1,2.7,2.7Zm-67.73-47a2.7,2.7,0,1,1,5.24-1.31c2,7.84,9.77,10.52,15.85,10.3,4.14-.1,9.6-1.42,12.54-4.82a7.93,7.93,0,0,0,1.84-6.44c-.71-5.87-5.47-9.22-15.42-10.85-14.6-2.4-18-9.7-18.27-15.4-.39-7.9,5.18-14.54,13.85-16.51.68-.15,1.39-.26,2.1-.35V35.15a2.71,2.71,0,1,1,5.41,0v5.32A19.35,19.35,0,0,1,98.66,52.36a2.7,2.7,0,1,1-5,2.1c-3.24-7.72-11.33-9.74-17.47-8.35-4.64,1.06-10,4.57-9.65,11,.1,2,.4,8.13,13.75,10.32,4.55.75,18.4,3,19.91,15.55a13.35,13.35,0,0,1-3.11,10.62c-3.15,3.65-8.51,6-14.58,6.56v5.28a2.71,2.71,0,0,1-5.41,0V100.1c-7.72-.89-15.51-5.35-17.73-14.23Zm-54,108.72H154.24V44.42H117.93a2.7,2.7,0,0,1-2.7-2.71V5.41H5.41V194.59ZM120.64,9.23,150.42,39H120.64V9.23ZM158.85,39.8l-39-39A2.71,2.71,0,0,0,117.93,0H2.7A2.7,2.7,0,0,0,0,2.7V197.3A2.7,2.7,0,0,0,2.7,200H157a2.7,2.7,0,0,0,2.7-2.7V41.71A2.71,2.71,0,0,0,158.85,39.8Z"/></g></g></svg>