<svg xmlns="http://www.w3.org/2000/svg" viewBox="0 0 200 164.82"><defs><style>.cls-1{fill:#245fff;}</style></defs><g id="Layer_2" data-name="Layer 2"><g id="Layer_1-2" data-name="Layer 1"><path class="cls-1" d="M129.11,164.82a1.75,1.75,0,0,1,0-3.5h69.14a1.75,1.75,0,0,1,0,3.5Zm-127.36,0A1.76,1.76,0,0,1,0,163.07V75.87a1.76,1.76,0,0,1,1.75-1.75H98.62a1.76,1.76,0,0,1,1.75,1.75v87.2a1.76,1.76,0,0,1-1.75,1.75ZM50.19,91.35a22.09,22.09,0,0,1,22.06,22.06v4.31h9.23a1.75,1.75,0,0,1,1.75,1.75v41.85H96.87V77.63H3.51v83.69H17.14V119.47a1.75,1.75,0,0,1,1.75-1.75h9.23v-4.31A22.09,22.09,0,0,1,50.19,91.35Zm-29.54,70H79.73v-40.1H20.65ZM50.19,94.85a18.58,18.58,0,0,0-18.56,18.56v4.31H68.75v-4.31A18.59,18.59,0,0,0,50.19,94.85ZM129.11,143a1.75,1.75,0,0,1,0-3.5h69.14a1.75,1.75,0,0,1,0,3.5Zm0-21.8a1.75,1.75,0,0,1,0-3.5h69.14a1.75,1.75,0,0,1,0,3.5Zm0-21.8a1.75,1.75,0,0,1,0-3.5h69.14a1.75,1.75,0,0,1,0,3.5Zm0-21.79a1.76,1.76,0,0,1,0-3.51h69.14a1.76,1.76,0,0,1,0,3.51ZM188.72,51a1.73,1.73,0,0,1-.81-.2L173.3,43.07l-14.59,7.68a1.81,1.81,0,0,1-.82.2,1.74,1.74,0,0,1-1-.34,1.72,1.72,0,0,1-.69-1.71L159,32.64,147.14,21.13a1.76,1.76,0,0,1,1-3l16.33-2.37L171.73,1a1.76,1.76,0,0,1,3.15,0l7.3,14.79,16.32,2.37a1.76,1.76,0,0,1,1,3L187.66,32.64l2.79,16.26A1.76,1.76,0,0,1,188.72,51ZM167.17,18.14a1.73,1.73,0,0,1-1.32,1l-13.72,2,9.93,9.67a1.77,1.77,0,0,1,.5,1.56L160.22,46l12.27-6.45a1.76,1.76,0,0,1,1.63,0L186.39,46l-2.34-13.66a1.77,1.77,0,0,1,.5-1.56l9.93-9.67-13.72-2a1.75,1.75,0,0,1-1.32-1L173.3,5.71ZM115.41,51a1.76,1.76,0,0,1-.81-.2L100,43.07,85.4,50.75a1.75,1.75,0,0,1-1.85-.14,1.72,1.72,0,0,1-.69-1.71l2.79-16.26L73.84,21.13a1.73,1.73,0,0,1-.45-1.8,1.76,1.76,0,0,1,1.42-1.19l16.32-2.37L98.43,1a1.75,1.75,0,0,1,3.14,0l7.3,14.79,16.32,2.37a1.76,1.76,0,0,1,1.42,1.19,1.73,1.73,0,0,1-.45,1.8L114.35,32.64l2.79,16.26A1.76,1.76,0,0,1,115.41,51ZM93.86,18.14a1.72,1.72,0,0,1-1.32,1l-13.72,2,9.93,9.67a1.77,1.77,0,0,1,.51,1.55L86.91,46l12.28-6.45a1.76,1.76,0,0,1,.81-.2,1.84,1.84,0,0,1,.82.2L113.09,46l-2.35-13.66a1.78,1.78,0,0,1,.51-1.56l9.92-9.67-13.71-2a1.72,1.72,0,0,1-1.32-1L100,5.71ZM42.11,51a1.77,1.77,0,0,1-.82-.2L26.7,43.07,12.09,50.75A1.76,1.76,0,0,1,9.55,48.9l2.79-16.26L.53,21.13a1.76,1.76,0,0,1,1-3l16.32-2.37L25.12,1a1.76,1.76,0,0,1,3.15,0l7.29,14.79,16.33,2.37a1.76,1.76,0,0,1,1,3L41.05,32.64,43.84,48.9A1.76,1.76,0,0,1,42.11,51ZM26.7,39.34a1.76,1.76,0,0,1,.81.2L39.78,46,37.44,32.33a1.77,1.77,0,0,1,.5-1.56l9.93-9.67-13.72-2a1.73,1.73,0,0,1-1.32-1L26.7,5.71,20.56,18.14a1.75,1.75,0,0,1-1.32,1l-13.72,2,9.93,9.67a1.76,1.76,0,0,1,.5,1.55L13.61,46l12.27-6.45A1.77,1.77,0,0,1,26.7,39.34Z"/></g></g></svg>