<svg xmlns="http://www.w3.org/2000/svg" viewBox="0 0 200 168.15"><defs><style>.cls-1{fill:#245fff;}</style></defs><g id="Layer_2" data-name="Layer 2"><g id="Layer_1-2" data-name="Layer 1"><path class="cls-1" d="M26.75,168.15A26.78,26.78,0,0,1,0,141.4V92.16A26.61,26.61,0,0,1,22.58,65.75,35,35,0,1,1,71.6,21a35,35,0,1,1,49,44.74,26.61,26.61,0,0,1,22.6,26.41v6.75l45.55-23.76a7.74,7.74,0,0,1,3.56-.87A7.68,7.68,0,0,1,200,82v69.64a7.78,7.78,0,0,1-.87,3.57,7.67,7.67,0,0,1-6.82,4.12,7.59,7.59,0,0,1-3.55-.88l-45.55-23.78v6.75a26.78,26.78,0,0,1-26.75,26.75Zm0-96.91A20.94,20.94,0,0,0,5.83,92.16V141.4a20.94,20.94,0,0,0,20.92,20.92h89.71a21,21,0,0,0,20.92-20.92V92.16a21,21,0,0,0-20.92-20.92Zm164.69,82a1.85,1.85,0,0,0,2.71-1.64V82a1.78,1.78,0,0,0-.21-.85,1.84,1.84,0,0,0-1.65-1,1.93,1.93,0,0,0-.85.2l-48.23,25.16v22.57ZM86.18,65.41A35.2,35.2,0,0,1,71.6,49.11,35.14,35.14,0,0,1,57,65.41ZM38.91,5.18A29.25,29.25,0,0,0,10.17,35,29.25,29.25,0,0,0,38.91,64.74h.53A29.4,29.4,0,0,0,68.69,36V33.91A29.4,29.4,0,0,0,39.44,5.17Zm64.8.66A29.17,29.17,0,0,0,74.52,34.05v2.08A29.23,29.23,0,1,0,103.74,5.84V5.31Z"/><path class="cls-1" d="M.53,92.16V141.4a26.22,26.22,0,0,0,26.22,26.22h89.71a26.21,26.21,0,0,0,26.21-26.22h0v-7.63L189,158a7.15,7.15,0,0,0,10.46-6.34V82A7.15,7.15,0,0,0,189,75.64L142.67,99.81V92.18a26.2,26.2,0,0,0-23.83-26.09A34.51,34.51,0,1,0,71.6,22.42,34.51,34.51,0,1,0,24.34,66.06,26.24,26.24,0,0,0,.53,92.16ZM191.2,79.86a2.38,2.38,0,0,1,3.21,1,2.35,2.35,0,0,1,.27,1.1v69.6A2.38,2.38,0,0,1,192.3,154a2.47,2.47,0,0,1-1.1-.26l-48.53-25.31V105.17ZM103.71,5.31A29.77,29.77,0,1,1,74,36.13V34A29.78,29.78,0,0,1,103.71,5.31ZM88.29,65.94H54.92A34.69,34.69,0,0,0,71.6,47.73,34.7,34.7,0,0,0,88.29,65.94ZM9.64,35a29.79,29.79,0,1,1,59.58-1.05h0V36A29.79,29.79,0,1,1,9.64,35Zm17,35.75h89.81a21.45,21.45,0,0,1,21.45,21.45h0V141.4a21.45,21.45,0,0,1-21.45,21.45H26.75A21.45,21.45,0,0,1,5.3,141.4V92.16A21.45,21.45,0,0,1,26.75,70.71Z"/></g></g></svg>